<svg width="260" height="138" viewBox="0 0 260 138" fill="none" xmlns="http://www.w3.org/2000/svg">
<g clip-path="url(#clip0_1_23)">
<rect width="260" height="138" rx="10" fill="#E2E0E0"/>
<path d="M41.9265 33.5455V43H40.2L36.0867 37.0494H36.0174V43H34.0185V33.5455H35.7728L39.8537 39.4915H39.9368V33.5455H41.9265ZM48.0884 39.9808V35.9091H50.055V43H48.1669V41.712H48.093C47.933 42.1275 47.6667 42.4614 47.2943 42.7138C46.925 42.9661 46.4742 43.0923 45.9417 43.0923C45.4678 43.0923 45.0507 42.9846 44.6907 42.7692C44.3306 42.5537 44.049 42.2475 43.8458 41.8505C43.6458 41.4535 43.5442 40.978 43.5411 40.424V35.9091H45.5078V40.0732C45.5108 40.4917 45.6232 40.8226 45.8448 41.0657C46.0664 41.3088 46.3634 41.4304 46.7358 41.4304C46.9727 41.4304 47.1943 41.3765 47.4005 41.2688C47.6067 41.158 47.7729 40.9949 47.8991 40.7795C48.0284 40.564 48.0915 40.2978 48.0884 39.9808ZM55.3997 35.9091V37.3864H51.1295V35.9091H55.3997ZM52.0989 34.2102H54.0656V40.821C54.0656 41.0026 54.0933 41.1442 54.1487 41.2457C54.2041 41.3442 54.281 41.4135 54.3795 41.4535C54.481 41.4935 54.598 41.5135 54.7303 41.5135C54.8227 41.5135 54.915 41.5058 55.0073 41.4904C55.0997 41.4719 55.1704 41.4581 55.2197 41.4489L55.529 42.9123C55.4305 42.9431 55.292 42.9785 55.1135 43.0185C54.935 43.0616 54.718 43.0877 54.4626 43.0969C53.9886 43.1154 53.5731 43.0523 53.2161 42.9077C52.8622 42.763 52.5868 42.5384 52.3898 42.2337C52.1928 41.929 52.0959 41.5443 52.0989 41.0795V34.2102ZM56.6808 43V35.9091H58.5874V37.1463H58.6613C58.7905 36.7062 59.0075 36.3738 59.3122 36.1491C59.6169 35.9214 59.9677 35.8075 60.3647 35.8075C60.4632 35.8075 60.5694 35.8137 60.6833 35.826C60.7972 35.8383 60.8972 35.8552 60.9834 35.8768V37.6218C60.891 37.5941 60.7633 37.5695 60.6002 37.5479C60.4371 37.5264 60.2878 37.5156 60.1524 37.5156C59.8631 37.5156 59.6046 37.5787 59.3768 37.7049C59.1522 37.828 58.9736 38.0004 58.8413 38.2219C58.712 38.4435 58.6474 38.699 58.6474 38.9883V43H56.6808ZM62.0001 43V35.9091H63.9668V43H62.0001ZM62.9881 34.995C62.6957 34.995 62.4449 34.8981 62.2356 34.7042C62.0294 34.5072 61.9263 34.2718 61.9263 33.9979C61.9263 33.727 62.0294 33.4947 62.2356 33.3008C62.4449 33.1038 62.6957 33.0053 62.9881 33.0053C63.2804 33.0053 63.5297 33.1038 63.7359 33.3008C63.9452 33.4947 64.0498 33.727 64.0498 33.9979C64.0498 34.2718 63.9452 34.5072 63.7359 34.7042C63.5297 34.8981 63.2804 34.995 62.9881 34.995ZM65.5791 43V33.5455H69.3092C70.0263 33.5455 70.6372 33.6824 71.1419 33.9563C71.6466 34.2272 72.0314 34.6042 72.296 35.0874C72.5638 35.5675 72.6977 36.1214 72.6977 36.7493C72.6977 37.3771 72.5622 37.9311 72.2914 38.4112C72.0206 38.8913 71.6282 39.2653 71.1142 39.533C70.6033 39.8008 69.9847 39.9347 69.2584 39.9347H66.8809V38.3327H68.9352C69.3199 38.3327 69.6369 38.2666 69.8862 38.1342C70.1386 37.9988 70.3263 37.8126 70.4494 37.5756C70.5756 37.3356 70.6387 37.0601 70.6387 36.7493C70.6387 36.4354 70.5756 36.1615 70.4494 35.9276C70.3263 35.6906 70.1386 35.5075 69.8862 35.3782C69.6339 35.2459 69.3138 35.1797 68.926 35.1797H67.578V43H65.5791ZM75.7907 43.1339C75.3383 43.1339 74.9351 43.0554 74.5812 42.8984C74.2273 42.7384 73.9472 42.503 73.741 42.1921C73.5379 41.8782 73.4363 41.4873 73.4363 41.0195C73.4363 40.6256 73.5086 40.2947 73.6533 40.027C73.7979 39.7592 73.9949 39.5438 74.2442 39.3807C74.4935 39.2176 74.7766 39.0945 75.0936 39.0114C75.4137 38.9283 75.7492 38.8698 76.1 38.8359C76.5124 38.7929 76.8448 38.7528 77.0972 38.7159C77.3495 38.6759 77.5327 38.6174 77.6465 38.5405C77.7604 38.4635 77.8173 38.3497 77.8173 38.1989V38.1712C77.8173 37.8788 77.725 37.6526 77.5403 37.4925C77.3588 37.3325 77.1002 37.2525 76.7648 37.2525C76.4109 37.2525 76.1292 37.331 75.92 37.4879C75.7107 37.6418 75.5722 37.8357 75.5045 38.0696L73.6856 37.9219C73.7779 37.491 73.9595 37.1186 74.2303 36.8047C74.5012 36.4877 74.8505 36.2446 75.2783 36.0753C75.7091 35.9029 76.2077 35.8168 76.774 35.8168C77.168 35.8168 77.545 35.8629 77.9051 35.9553C78.2682 36.0476 78.5898 36.1907 78.8699 36.3846C79.153 36.5785 79.3762 36.8278 79.5393 37.1325C79.7024 37.4341 79.784 37.7957 79.784 38.2173V43H77.9189V42.0167H77.8635C77.7496 42.2383 77.5973 42.4337 77.4065 42.603C77.2157 42.7692 76.9864 42.9 76.7186 42.9954C76.4509 43.0877 76.1416 43.1339 75.7907 43.1339ZM76.3539 41.7766C76.6432 41.7766 76.8987 41.7197 77.1203 41.6058C77.3418 41.4889 77.5157 41.3319 77.6419 41.1349C77.7681 40.938 77.8312 40.7148 77.8312 40.4656V39.7131C77.7696 39.7531 77.685 39.79 77.5773 39.8239C77.4726 39.8546 77.3542 39.8839 77.2218 39.9116C77.0895 39.9362 76.9571 39.9593 76.8248 39.9808C76.6925 39.9993 76.5724 40.0162 76.4647 40.0316C76.2339 40.0655 76.0323 40.1193 75.86 40.1932C75.6876 40.267 75.5537 40.3671 75.4583 40.4933C75.3629 40.6164 75.3152 40.7702 75.3152 40.9549C75.3152 41.2227 75.4122 41.4273 75.606 41.5689C75.803 41.7074 76.0523 41.7766 76.3539 41.7766ZM83.2763 33.5455V43H81.3097V33.5455H83.2763ZM89.2593 43L87.3296 35.9091H89.3193L90.418 40.6733H90.4826L91.6275 35.9091H93.5803L94.7437 40.6456H94.8037L95.8839 35.9091H97.869L95.9439 43H93.8619L92.6432 38.5405H92.5554L91.3367 43H89.2593ZM101.944 43.1385C101.227 43.1385 100.607 42.9862 100.084 42.6815C99.5636 42.3737 99.162 41.9459 98.8789 41.3981C98.5957 40.8472 98.4541 40.2086 98.4541 39.4822C98.4541 38.7498 98.5957 38.1096 98.8789 37.5618C99.162 37.0109 99.5636 36.5831 100.084 36.2784C100.607 35.9706 101.227 35.8168 101.944 35.8168C102.661 35.8168 103.28 35.9706 103.8 36.2784C104.323 36.5831 104.726 37.0109 105.01 37.5618C105.293 38.1096 105.434 38.7498 105.434 39.4822C105.434 40.2086 105.293 40.8472 105.01 41.3981C104.726 41.9459 104.323 42.3737 103.8 42.6815C103.28 42.9862 102.661 43.1385 101.944 43.1385ZM101.953 41.6151C102.28 41.6151 102.552 41.5227 102.771 41.3381C102.989 41.1503 103.154 40.8949 103.265 40.5717C103.378 40.2486 103.435 39.8808 103.435 39.4684C103.435 39.056 103.378 38.6882 103.265 38.3651C103.154 38.0419 102.989 37.7865 102.771 37.5987C102.552 37.411 102.28 37.3171 101.953 37.3171C101.624 37.3171 101.347 37.411 101.122 37.5987C100.901 37.7865 100.733 38.0419 100.619 38.3651C100.508 38.6882 100.453 39.056 100.453 39.4684C100.453 39.8808 100.508 40.2486 100.619 40.5717C100.733 40.8949 100.901 41.1503 101.122 41.3381C101.347 41.5227 101.624 41.6151 101.953 41.6151ZM111.26 39.9808V35.9091H113.227V43H111.339V41.712H111.265C111.105 42.1275 110.839 42.4614 110.466 42.7138C110.097 42.9661 109.646 43.0923 109.114 43.0923C108.64 43.0923 108.223 42.9846 107.863 42.7692C107.502 42.5537 107.221 42.2475 107.018 41.8505C106.818 41.4535 106.716 40.978 106.713 40.424V35.9091H108.68V40.0732C108.683 40.4917 108.795 40.8226 109.017 41.0657C109.238 41.3088 109.535 41.4304 109.908 41.4304C110.145 41.4304 110.366 41.3765 110.572 41.2688C110.779 41.158 110.945 40.9949 111.071 40.7795C111.2 40.564 111.263 40.2978 111.26 39.9808ZM116.767 33.5455V43H114.8V33.5455H116.767ZM120.955 43.1154C120.416 43.1154 119.928 42.9769 119.491 42.6999C119.057 42.4199 118.713 42.009 118.457 41.4673C118.205 40.9226 118.079 40.2547 118.079 39.4638C118.079 38.6513 118.21 37.9757 118.471 37.4371C118.733 36.8955 119.081 36.4908 119.515 36.223C119.952 35.9522 120.43 35.8168 120.95 35.8168C121.347 35.8168 121.678 35.8845 121.943 36.0199C122.211 36.1522 122.426 36.3184 122.589 36.5185C122.755 36.7154 122.881 36.9093 122.968 37.1001H123.028V33.5455H124.99V43H123.051V41.8643H122.968C122.875 42.0613 122.745 42.2567 122.575 42.4506C122.409 42.6415 122.192 42.8 121.924 42.9261C121.66 43.0523 121.336 43.1154 120.955 43.1154ZM121.578 41.5504C121.895 41.5504 122.163 41.4643 122.381 41.2919C122.603 41.1165 122.772 40.8718 122.889 40.5579C123.009 40.244 123.069 39.8762 123.069 39.4545C123.069 39.0329 123.011 38.6667 122.894 38.3558C122.777 38.045 122.608 37.8049 122.386 37.6357C122.164 37.4664 121.895 37.3817 121.578 37.3817C121.255 37.3817 120.983 37.4695 120.761 37.6449C120.539 37.8203 120.372 38.0634 120.258 38.3743C120.144 38.6851 120.087 39.0452 120.087 39.4545C120.087 39.867 120.144 40.2317 120.258 40.5487C120.375 40.8626 120.542 41.1088 120.761 41.2873C120.983 41.4627 121.255 41.5504 121.578 41.5504ZM131.582 33.5455V43H129.615V33.5455H131.582ZM133.157 43V35.9091H135.124V43H133.157ZM134.145 34.995C133.853 34.995 133.602 34.8981 133.393 34.7042C133.187 34.5072 133.083 34.2718 133.083 33.9979C133.083 33.727 133.187 33.4947 133.393 33.3008C133.602 33.1038 133.853 33.0053 134.145 33.0053C134.438 33.0053 134.687 33.1038 134.893 33.3008C135.102 33.4947 135.207 33.727 135.207 33.9979C135.207 34.2718 135.102 34.5072 134.893 34.7042C134.687 34.8981 134.438 34.995 134.145 34.995ZM138.481 40.9595L138.486 38.6005H138.772L141.043 35.9091H143.301L140.249 39.473H139.783L138.481 40.9595ZM136.699 43V33.5455H138.666V43H136.699ZM141.131 43L139.045 39.9116L140.356 38.522L143.435 43H141.131ZM147.205 43.1385C146.476 43.1385 145.848 42.9908 145.322 42.6953C144.799 42.3968 144.395 41.9751 144.112 41.4304C143.829 40.8826 143.688 40.2347 143.688 39.4869C143.688 38.7575 143.829 38.1173 144.112 37.5664C144.395 37.0155 144.794 36.5862 145.308 36.2784C145.825 35.9706 146.431 35.8168 147.127 35.8168C147.595 35.8168 148.03 35.8922 148.433 36.043C148.84 36.1907 149.193 36.4138 149.495 36.7124C149.8 37.0109 150.037 37.3864 150.206 37.8388C150.375 38.2881 150.46 38.8144 150.46 39.4176V39.9577H144.472V38.739H148.609C148.609 38.4558 148.547 38.205 148.424 37.9865C148.301 37.768 148.13 37.5972 147.912 37.4741C147.696 37.3479 147.445 37.2848 147.159 37.2848C146.861 37.2848 146.596 37.354 146.365 37.4925C146.137 37.628 145.959 37.8111 145.83 38.0419C145.7 38.2696 145.634 38.5236 145.631 38.8036V39.9624C145.631 40.3132 145.696 40.6164 145.825 40.8718C145.957 41.1272 146.144 41.3242 146.384 41.4627C146.624 41.6012 146.908 41.6705 147.238 41.6705C147.456 41.6705 147.656 41.6397 147.838 41.5781C148.019 41.5166 148.175 41.4242 148.304 41.3011C148.433 41.178 148.532 41.0272 148.599 40.8487L150.418 40.9688C150.326 41.4058 150.137 41.7874 149.851 42.1136C149.567 42.4368 149.201 42.6892 148.752 42.8707C148.306 43.0492 147.79 43.1385 147.205 43.1385ZM158.524 35.9091V37.3864H154.254V35.9091H158.524ZM155.223 34.2102H157.19V40.821C157.19 41.0026 157.217 41.1442 157.273 41.2457C157.328 41.3442 157.405 41.4135 157.504 41.4535C157.605 41.4935 157.722 41.5135 157.854 41.5135C157.947 41.5135 158.039 41.5058 158.131 41.4904C158.224 41.4719 158.294 41.4581 158.344 41.4489L158.653 42.9123C158.555 42.9431 158.416 42.9785 158.238 43.0185C158.059 43.0616 157.842 43.0877 157.587 43.0969C157.113 43.1154 156.697 43.0523 156.34 42.9077C155.986 42.763 155.711 42.5384 155.514 42.2337C155.317 41.929 155.22 41.5443 155.223 41.0795V34.2102ZM162.932 43.1385C162.215 43.1385 161.595 42.9862 161.072 42.6815C160.552 42.3737 160.15 41.9459 159.867 41.3981C159.584 40.8472 159.442 40.2086 159.442 39.4822C159.442 38.7498 159.584 38.1096 159.867 37.5618C160.15 37.0109 160.552 36.5831 161.072 36.2784C161.595 35.9706 162.215 35.8168 162.932 35.8168C163.65 35.8168 164.268 35.9706 164.788 36.2784C165.312 36.5831 165.715 37.0109 165.998 37.5618C166.281 38.1096 166.423 38.7498 166.423 39.4822C166.423 40.2086 166.281 40.8472 165.998 41.3981C165.715 41.9459 165.312 42.3737 164.788 42.6815C164.268 42.9862 163.65 43.1385 162.932 43.1385ZM162.942 41.6151C163.268 41.6151 163.54 41.5227 163.759 41.3381C163.977 41.1503 164.142 40.8949 164.253 40.5717C164.367 40.2486 164.424 39.8808 164.424 39.4684C164.424 39.056 164.367 38.6882 164.253 38.3651C164.142 38.0419 163.977 37.7865 163.759 37.5987C163.54 37.411 163.268 37.3171 162.942 37.3171C162.612 37.3171 162.335 37.411 162.111 37.5987C161.889 37.7865 161.721 38.0419 161.608 38.3651C161.497 38.6882 161.441 39.056 161.441 39.4684C161.441 39.8808 161.497 40.2486 161.608 40.5717C161.721 40.8949 161.889 41.1503 162.111 41.3381C162.335 41.5227 162.612 41.6151 162.942 41.6151ZM176.61 37.9311L174.81 38.0419C174.779 37.888 174.713 37.7495 174.611 37.6264C174.509 37.5002 174.376 37.4002 174.209 37.3263C174.046 37.2494 173.851 37.2109 173.623 37.2109C173.318 37.2109 173.061 37.2756 172.852 37.4048C172.643 37.531 172.538 37.7003 172.538 37.9126C172.538 38.0819 172.606 38.225 172.741 38.342C172.877 38.4589 173.109 38.5528 173.438 38.6236L174.722 38.8821C175.411 39.0237 175.925 39.2514 176.264 39.5653C176.602 39.8793 176.772 40.2917 176.772 40.8026C176.772 41.2673 176.635 41.6751 176.361 42.0259C176.09 42.3768 175.717 42.6507 175.243 42.8477C174.773 43.0415 174.229 43.1385 173.614 43.1385C172.675 43.1385 171.927 42.9431 171.37 42.5522C170.816 42.1583 170.492 41.6228 170.396 40.9457L172.33 40.8441C172.389 41.1303 172.531 41.3488 172.755 41.4996C172.98 41.6474 173.268 41.7212 173.618 41.7212C173.963 41.7212 174.24 41.6551 174.449 41.5227C174.662 41.3873 174.77 41.2134 174.773 41.0011C174.77 40.8226 174.694 40.6764 174.546 40.5625C174.399 40.4455 174.171 40.3563 173.863 40.2947L172.635 40.0501C171.943 39.9116 171.427 39.6715 171.089 39.3299C170.753 38.9883 170.585 38.5528 170.585 38.0234C170.585 37.5679 170.709 37.1755 170.955 36.8462C171.204 36.5169 171.553 36.263 172.003 36.0845C172.455 35.906 172.984 35.8168 173.591 35.8168C174.486 35.8168 175.191 36.006 175.705 36.3846C176.222 36.7631 176.524 37.2786 176.61 37.9311ZM181.241 43.1385C180.512 43.1385 179.884 42.9908 179.358 42.6953C178.835 42.3968 178.432 41.9751 178.148 41.4304C177.865 40.8826 177.724 40.2347 177.724 39.4869C177.724 38.7575 177.865 38.1173 178.148 37.5664C178.432 37.0155 178.83 36.5862 179.344 36.2784C179.861 35.9706 180.467 35.8168 181.163 35.8168C181.631 35.8168 182.066 35.8922 182.469 36.043C182.876 36.1907 183.23 36.4138 183.531 36.7124C183.836 37.0109 184.073 37.3864 184.242 37.8388C184.411 38.2881 184.496 38.8144 184.496 39.4176V39.9577H178.508V38.739H182.645C182.645 38.4558 182.583 38.205 182.46 37.9865C182.337 37.768 182.166 37.5972 181.948 37.4741C181.732 37.3479 181.481 37.2848 181.195 37.2848C180.897 37.2848 180.632 37.354 180.401 37.4925C180.173 37.628 179.995 37.8111 179.866 38.0419C179.736 38.2696 179.67 38.5236 179.667 38.8036V39.9624C179.667 40.3132 179.732 40.6164 179.861 40.8718C179.993 41.1272 180.18 41.3242 180.42 41.4627C180.66 41.6012 180.944 41.6705 181.274 41.6705C181.492 41.6705 181.692 41.6397 181.874 41.5781C182.055 41.5166 182.211 41.4242 182.34 41.3011C182.469 41.178 182.568 41.0272 182.636 40.8487L184.455 40.9688C184.362 41.4058 184.173 41.7874 183.887 42.1136C183.604 42.4368 183.237 42.6892 182.788 42.8707C182.342 43.0492 181.826 43.1385 181.241 43.1385ZM187.746 38.9006V43H185.779V35.9091H187.654V37.1602H187.737C187.894 36.7478 188.157 36.4215 188.526 36.1815C188.896 35.9383 189.343 35.8168 189.87 35.8168C190.362 35.8168 190.791 35.9245 191.158 36.1399C191.524 36.3554 191.809 36.6631 192.012 37.0632C192.215 37.4602 192.316 37.9342 192.316 38.4851V43H190.35V38.8359C190.353 38.402 190.242 38.0634 190.017 37.8203C189.793 37.5741 189.483 37.451 189.089 37.451C188.825 37.451 188.591 37.5079 188.388 37.6218C188.188 37.7357 188.031 37.9019 187.917 38.1204C187.806 38.3358 187.749 38.5959 187.746 38.9006ZM196.479 43.1154C195.941 43.1154 195.453 42.9769 195.016 42.6999C194.582 42.4199 194.237 42.009 193.982 41.4673C193.729 40.9226 193.603 40.2547 193.603 39.4638C193.603 38.6513 193.734 37.9757 193.996 37.4371C194.257 36.8955 194.605 36.4908 195.039 36.223C195.476 35.9522 195.955 35.8168 196.475 35.8168C196.872 35.8168 197.203 35.8845 197.467 36.0199C197.735 36.1522 197.95 36.3184 198.114 36.5185C198.28 36.7154 198.406 36.9093 198.492 37.1001H198.552V33.5455H200.514V43H198.575V41.8643H198.492C198.4 42.0613 198.269 42.2567 198.1 42.4506C197.933 42.6415 197.716 42.8 197.449 42.9261C197.184 43.0523 196.861 43.1154 196.479 43.1154ZM197.102 41.5504C197.419 41.5504 197.687 41.4643 197.906 41.2919C198.127 41.1165 198.297 40.8718 198.414 40.5579C198.534 40.244 198.594 39.8762 198.594 39.4545C198.594 39.0329 198.535 38.6667 198.418 38.3558C198.301 38.045 198.132 37.8049 197.91 37.6357C197.689 37.4664 197.419 37.3817 197.102 37.3817C196.779 37.3817 196.507 37.4695 196.285 37.6449C196.064 37.8203 195.896 38.0634 195.782 38.3743C195.668 38.6851 195.611 39.0452 195.611 39.4545C195.611 39.867 195.668 40.2317 195.782 40.5487C195.899 40.8626 196.067 41.1088 196.285 41.2873C196.507 41.4627 196.779 41.5504 197.102 41.5504ZM206.354 45.6591C206.105 45.6591 205.871 45.6391 205.652 45.5991C205.437 45.5621 205.258 45.5144 205.117 45.456L205.56 43.9879C205.791 44.0587 205.998 44.0972 206.183 44.1033C206.371 44.1095 206.532 44.0664 206.668 43.9741C206.806 43.8817 206.919 43.7248 207.005 43.5032L207.12 43.2031L204.577 35.9091H206.645L208.113 41.1165H208.187L209.669 35.9091H211.751L208.995 43.7663C208.862 44.148 208.682 44.4804 208.454 44.7635C208.23 45.0497 207.945 45.2698 207.6 45.4237C207.256 45.5806 206.84 45.6591 206.354 45.6591ZM215.732 43.1385C215.015 43.1385 214.395 42.9862 213.872 42.6815C213.352 42.3737 212.95 41.9459 212.667 41.3981C212.384 40.8472 212.242 40.2086 212.242 39.4822C212.242 38.7498 212.384 38.1096 212.667 37.5618C212.95 37.0109 213.352 36.5831 213.872 36.2784C214.395 35.9706 215.015 35.8168 215.732 35.8168C216.449 35.8168 217.068 35.9706 217.588 36.2784C218.111 36.5831 218.514 37.0109 218.798 37.5618C219.081 38.1096 219.222 38.7498 219.222 39.4822C219.222 40.2086 219.081 40.8472 218.798 41.3981C218.514 41.9459 218.111 42.3737 217.588 42.6815C217.068 42.9862 216.449 43.1385 215.732 43.1385ZM215.742 41.6151C216.068 41.6151 216.34 41.5227 216.559 41.3381C216.777 41.1503 216.942 40.8949 217.053 40.5717C217.166 40.2486 217.223 39.8808 217.223 39.4684C217.223 39.056 217.166 38.6882 217.053 38.3651C216.942 38.0419 216.777 37.7865 216.559 37.5987C216.34 37.411 216.068 37.3171 215.742 37.3171C215.412 37.3171 215.135 37.411 214.911 37.5987C214.689 37.7865 214.521 38.0419 214.407 38.3651C214.297 38.6882 214.241 39.056 214.241 39.4684C214.241 39.8808 214.297 40.2486 214.407 40.5717C214.521 40.8949 214.689 41.1503 214.911 41.3381C215.135 41.5227 215.412 41.6151 215.742 41.6151ZM225.048 39.9808V35.9091H227.015V43H225.127V41.712H225.053C224.893 42.1275 224.627 42.4614 224.254 42.7138C223.885 42.9661 223.434 43.0923 222.902 43.0923C222.428 43.0923 222.011 42.9846 221.651 42.7692C221.291 42.5537 221.009 42.2475 220.806 41.8505C220.606 41.4535 220.504 40.978 220.501 40.424V35.9091H222.468V40.0732C222.471 40.4917 222.583 40.8226 222.805 41.0657C223.026 41.3088 223.323 41.4304 223.696 41.4304C223.933 41.4304 224.154 41.3765 224.36 41.2688C224.567 41.158 224.733 40.9949 224.859 40.7795C224.988 40.564 225.051 40.2978 225.048 39.9808ZM98.3255 49.5455V59H96.5989L92.4856 53.0494H92.4164V59H90.4174V49.5455H92.1717L96.2527 55.4915H96.3358V49.5455H98.3255ZM103.144 59.1385C102.427 59.1385 101.807 58.9862 101.283 58.6815C100.763 58.3737 100.362 57.9459 100.079 57.3981C99.7954 56.8472 99.6539 56.2086 99.6539 55.4822C99.6539 54.7498 99.7954 54.1096 100.079 53.5618C100.362 53.0109 100.763 52.5831 101.283 52.2784C101.807 51.9706 102.427 51.8168 103.144 51.8168C103.861 51.8168 104.48 51.9706 105 52.2784C105.523 52.5831 105.926 53.0109 106.209 53.5618C106.492 54.1096 106.634 54.7498 106.634 55.4822C106.634 56.2086 106.492 56.8472 106.209 57.3981C105.926 57.9459 105.523 58.3737 105 58.6815C104.48 58.9862 103.861 59.1385 103.144 59.1385ZM103.153 57.6151C103.479 57.6151 103.752 57.5227 103.97 57.3381C104.189 57.1503 104.353 56.8949 104.464 56.5717C104.578 56.2486 104.635 55.8808 104.635 55.4684C104.635 55.056 104.578 54.6882 104.464 54.3651C104.353 54.0419 104.189 53.7865 103.97 53.5987C103.752 53.411 103.479 53.3171 103.153 53.3171C102.824 53.3171 102.547 53.411 102.322 53.5987C102.101 53.7865 101.933 54.0419 101.819 54.3651C101.708 54.6882 101.653 55.056 101.653 55.4684C101.653 55.8808 101.708 56.2486 101.819 56.5717C101.933 56.8949 102.101 57.1503 102.322 57.3381C102.547 57.5227 102.824 57.6151 103.153 57.6151ZM111.684 51.9091V53.3864H107.414V51.9091H111.684ZM108.384 50.2102H110.35V56.821C110.35 57.0026 110.378 57.1442 110.433 57.2457C110.489 57.3442 110.566 57.4135 110.664 57.4535C110.766 57.4935 110.883 57.5135 111.015 57.5135C111.107 57.5135 111.2 57.5058 111.292 57.4904C111.384 57.4719 111.455 57.4581 111.504 57.4489L111.814 58.9123C111.715 58.9431 111.577 58.9785 111.398 59.0185C111.22 59.0616 111.003 59.0877 110.747 59.0969C110.273 59.1154 109.858 59.0523 109.501 58.9077C109.147 58.763 108.871 58.5384 108.674 58.2337C108.477 57.929 108.381 57.5443 108.384 57.0795V50.2102ZM112.965 59V51.9091H114.932V59H112.965ZM113.953 50.995C113.661 50.995 113.41 50.8981 113.201 50.7042C112.995 50.5072 112.892 50.2718 112.892 49.9979C112.892 49.727 112.995 49.4947 113.201 49.3008C113.41 49.1038 113.661 49.0053 113.953 49.0053C114.246 49.0053 114.495 49.1038 114.701 49.3008C114.911 49.4947 115.015 49.727 115.015 49.9979C115.015 50.2718 114.911 50.5072 114.701 50.7042C114.495 50.8981 114.246 50.995 113.953 50.995ZM120.321 51.9091V53.3864H115.944V51.9091H120.321ZM116.946 59V51.3967C116.946 50.8827 117.046 50.4564 117.246 50.1179C117.449 49.7794 117.726 49.5254 118.077 49.3562C118.428 49.1869 118.826 49.1023 119.273 49.1023C119.574 49.1023 119.85 49.1254 120.099 49.1715C120.351 49.2177 120.539 49.2592 120.662 49.2962L120.311 50.7734C120.234 50.7488 120.139 50.7257 120.025 50.7042C119.914 50.6826 119.801 50.6719 119.684 50.6719C119.394 50.6719 119.193 50.7396 119.079 50.875C118.965 51.0073 118.908 51.1935 118.908 51.4336V59H116.946ZM121.522 59V51.9091H123.489V59H121.522ZM122.51 50.995C122.218 50.995 121.967 50.8981 121.758 50.7042C121.551 50.5072 121.448 50.2718 121.448 49.9979C121.448 49.727 121.551 49.4947 121.758 49.3008C121.967 49.1038 122.218 49.0053 122.51 49.0053C122.802 49.0053 123.052 49.1038 123.258 49.3008C123.467 49.4947 123.572 49.727 123.572 49.9979C123.572 50.2718 123.467 50.5072 123.258 50.7042C123.052 50.8981 122.802 50.995 122.51 50.995ZM128.268 59.1385C127.542 59.1385 126.917 58.9846 126.394 58.6768C125.874 58.366 125.473 57.9351 125.193 57.3842C124.916 56.8333 124.778 56.1993 124.778 55.4822C124.778 54.7559 124.918 54.1188 125.198 53.571C125.481 53.0201 125.883 52.5908 126.403 52.283C126.923 51.9722 127.542 51.8168 128.259 51.8168C128.877 51.8168 129.419 51.9291 129.884 52.1538C130.348 52.3784 130.716 52.6939 130.987 53.1001C131.258 53.5064 131.407 53.9834 131.435 54.5312H129.579C129.527 54.1773 129.388 53.8926 129.164 53.6772C128.942 53.4587 128.651 53.3494 128.291 53.3494C127.986 53.3494 127.72 53.4325 127.492 53.5987C127.268 53.7618 127.092 54.0004 126.966 54.3143C126.84 54.6282 126.777 55.0083 126.777 55.4545C126.777 55.907 126.838 56.2917 126.961 56.6087C127.088 56.9257 127.265 57.1673 127.492 57.3335C127.72 57.4996 127.986 57.5827 128.291 57.5827C128.516 57.5827 128.717 57.5366 128.896 57.4442C129.077 57.3519 129.227 57.218 129.344 57.0426C129.464 56.8641 129.542 56.6502 129.579 56.4009H131.435C131.404 56.9426 131.256 57.4196 130.992 57.832C130.73 58.2414 130.368 58.5614 129.907 58.7923C129.445 59.0231 128.899 59.1385 128.268 59.1385ZM134.716 59.1339C134.264 59.1339 133.86 59.0554 133.506 58.8984C133.153 58.7384 132.872 58.503 132.666 58.1921C132.463 57.8782 132.362 57.4873 132.362 57.0195C132.362 56.6256 132.434 56.2947 132.579 56.027C132.723 55.7592 132.92 55.5438 133.169 55.3807C133.419 55.2176 133.702 55.0945 134.019 55.0114C134.339 54.9283 134.674 54.8698 135.025 54.8359C135.438 54.7929 135.77 54.7528 136.022 54.7159C136.275 54.6759 136.458 54.6174 136.572 54.5405C136.686 54.4635 136.743 54.3497 136.743 54.1989V54.1712C136.743 53.8788 136.65 53.6526 136.466 53.4925C136.284 53.3325 136.026 53.2525 135.69 53.2525C135.336 53.2525 135.055 53.331 134.845 53.4879C134.636 53.6418 134.497 53.8357 134.43 54.0696L132.611 53.9219C132.703 53.491 132.885 53.1186 133.156 52.8047C133.426 52.4877 133.776 52.2446 134.204 52.0753C134.634 51.9029 135.133 51.8168 135.699 51.8168C136.093 51.8168 136.47 51.8629 136.83 51.9553C137.194 52.0476 137.515 52.1907 137.795 52.3846C138.078 52.5785 138.301 52.8278 138.465 53.1325C138.628 53.4341 138.709 53.7957 138.709 54.2173V59H136.844V58.0167H136.789C136.675 58.2383 136.523 58.4337 136.332 58.603C136.141 58.7692 135.912 58.9 135.644 58.9954C135.376 59.0877 135.067 59.1339 134.716 59.1339ZM135.279 57.7766C135.569 57.7766 135.824 57.7197 136.046 57.6058C136.267 57.4889 136.441 57.3319 136.567 57.1349C136.693 56.938 136.756 56.7148 136.756 56.4656V55.7131C136.695 55.7531 136.61 55.79 136.503 55.8239C136.398 55.8546 136.279 55.8839 136.147 55.9116C136.015 55.9362 135.882 55.9593 135.75 55.9808C135.618 55.9993 135.498 56.0162 135.39 56.0316C135.159 56.0655 134.958 56.1193 134.785 56.1932C134.613 56.267 134.479 56.3671 134.384 56.4933C134.288 56.6164 134.241 56.7702 134.241 56.9549C134.241 57.2227 134.337 57.4273 134.531 57.5689C134.728 57.7074 134.978 57.7766 135.279 57.7766ZM144.007 51.9091V53.3864H139.736V51.9091H144.007ZM140.706 50.2102H142.672V56.821C142.672 57.0026 142.7 57.1442 142.756 57.2457C142.811 57.3442 142.888 57.4135 142.986 57.4535C143.088 57.4935 143.205 57.5135 143.337 57.5135C143.43 57.5135 143.522 57.5058 143.614 57.4904C143.707 57.4719 143.777 57.4581 143.827 57.4489L144.136 58.9123C144.037 58.9431 143.899 58.9785 143.72 59.0185C143.542 59.0616 143.325 59.0877 143.07 59.0969C142.596 59.1154 142.18 59.0523 141.823 58.9077C141.469 58.763 141.194 58.5384 140.997 58.2337C140.8 57.929 140.703 57.5443 140.706 57.0795V50.2102ZM145.288 59V51.9091H147.254V59H145.288ZM146.276 50.995C145.983 50.995 145.732 50.8981 145.523 50.7042C145.317 50.5072 145.214 50.2718 145.214 49.9979C145.214 49.727 145.317 49.4947 145.523 49.3008C145.732 49.1038 145.983 49.0053 146.276 49.0053C146.568 49.0053 146.817 49.1038 147.024 49.3008C147.233 49.4947 147.337 49.727 147.337 49.9979C147.337 50.2718 147.233 50.5072 147.024 50.7042C146.817 50.8981 146.568 50.995 146.276 50.995ZM152.034 59.1385C151.316 59.1385 150.696 58.9862 150.173 58.6815C149.653 58.3737 149.251 57.9459 148.968 57.3981C148.685 56.8472 148.544 56.2086 148.544 55.4822C148.544 54.7498 148.685 54.1096 148.968 53.5618C149.251 53.0109 149.653 52.5831 150.173 52.2784C150.696 51.9706 151.316 51.8168 152.034 51.8168C152.751 51.8168 153.369 51.9706 153.889 52.2784C154.413 52.5831 154.816 53.0109 155.099 53.5618C155.382 54.1096 155.524 54.7498 155.524 55.4822C155.524 56.2086 155.382 56.8472 155.099 57.3981C154.816 57.9459 154.413 58.3737 153.889 58.6815C153.369 58.9862 152.751 59.1385 152.034 59.1385ZM152.043 57.6151C152.369 57.6151 152.641 57.5227 152.86 57.3381C153.078 57.1503 153.243 56.8949 153.354 56.5717C153.468 56.2486 153.525 55.8808 153.525 55.4684C153.525 55.056 153.468 54.6882 153.354 54.3651C153.243 54.0419 153.078 53.7865 152.86 53.5987C152.641 53.411 152.369 53.3171 152.043 53.3171C151.713 53.3171 151.436 53.411 151.212 53.5987C150.99 53.7865 150.823 54.0419 150.709 54.3651C150.598 54.6882 150.542 55.056 150.542 55.4684C150.542 55.8808 150.598 56.2486 150.709 56.5717C150.823 56.8949 150.99 57.1503 151.212 57.3381C151.436 57.5227 151.713 57.6151 152.043 57.6151ZM158.769 54.9006V59H156.802V51.9091H158.677V53.1602H158.76C158.917 52.7478 159.18 52.4215 159.549 52.1815C159.919 51.9383 160.366 51.8168 160.893 51.8168C161.385 51.8168 161.814 51.9245 162.181 52.1399C162.547 52.3554 162.831 52.6631 163.035 53.0632C163.238 53.4602 163.339 53.9342 163.339 54.4851V59H161.373V54.8359C161.376 54.402 161.265 54.0634 161.04 53.8203C160.816 53.5741 160.506 53.451 160.112 53.451C159.848 53.451 159.614 53.5079 159.411 53.6218C159.211 53.7357 159.054 53.9019 158.94 54.1204C158.829 54.3358 158.772 54.5959 158.769 54.9006ZM170.789 53.9311L168.989 54.0419C168.958 53.888 168.892 53.7495 168.79 53.6264C168.689 53.5002 168.555 53.4002 168.389 53.3263C168.225 53.2494 168.03 53.2109 167.802 53.2109C167.498 53.2109 167.241 53.2756 167.031 53.4048C166.822 53.531 166.717 53.7003 166.717 53.9126C166.717 54.0819 166.785 54.225 166.921 54.342C167.056 54.4589 167.288 54.5528 167.618 54.6236L168.901 54.8821C169.59 55.0237 170.104 55.2514 170.443 55.5653C170.781 55.8793 170.951 56.2917 170.951 56.8026C170.951 57.2673 170.814 57.6751 170.54 58.0259C170.269 58.3768 169.897 58.6507 169.423 58.8477C168.952 59.0415 168.409 59.1385 167.793 59.1385C166.854 59.1385 166.107 58.9431 165.549 58.5522C164.995 58.1583 164.671 57.6228 164.575 56.9457L166.51 56.8441C166.568 57.1303 166.71 57.3488 166.934 57.4996C167.159 57.6474 167.447 57.7212 167.798 57.7212C168.142 57.7212 168.419 57.6551 168.629 57.5227C168.841 57.3873 168.949 57.2134 168.952 57.0011C168.949 56.8226 168.873 56.6764 168.726 56.5625C168.578 56.4455 168.35 56.3563 168.042 56.2947L166.814 56.0501C166.122 55.9116 165.606 55.6715 165.268 55.3299C164.932 54.9883 164.765 54.5528 164.765 54.0234C164.765 53.5679 164.888 53.1755 165.134 52.8462C165.383 52.5169 165.733 52.263 166.182 52.0845C166.634 51.906 167.164 51.8168 167.77 51.8168C168.666 51.8168 169.37 52.006 169.884 52.3846C170.401 52.7631 170.703 53.2786 170.789 53.9311Z" fill="black"/>
<path d="M36.75 115H34.0568V106.273H36.8693C37.7159 106.273 38.4403 106.447 39.0426 106.797C39.6449 107.143 40.1065 107.642 40.4276 108.293C40.7486 108.94 40.9091 109.716 40.9091 110.619C40.9091 111.528 40.7472 112.311 40.4233 112.967C40.0994 113.621 39.6278 114.124 39.0085 114.476C38.3892 114.825 37.6364 115 36.75 115ZM35.1136 114.062H36.6818C37.4034 114.062 38.0014 113.923 38.4759 113.645C38.9503 113.366 39.304 112.97 39.5369 112.456C39.7699 111.942 39.8864 111.33 39.8864 110.619C39.8864 109.915 39.7713 109.308 39.5412 108.8C39.3111 108.288 38.9673 107.896 38.5099 107.624C38.0526 107.348 37.483 107.21 36.8011 107.21H35.1136V114.062ZM45.2045 115.136C44.6136 115.136 44.0952 114.996 43.6491 114.714C43.206 114.433 42.8594 114.04 42.6094 113.534C42.3622 113.028 42.2386 112.437 42.2386 111.761C42.2386 111.08 42.3622 110.484 42.6094 109.976C42.8594 109.467 43.206 109.072 43.6491 108.791C44.0952 108.51 44.6136 108.369 45.2045 108.369C45.7955 108.369 46.3125 108.51 46.7557 108.791C47.2017 109.072 47.5483 109.467 47.7955 109.976C48.0455 110.484 48.1705 111.08 48.1705 111.761C48.1705 112.437 48.0455 113.028 47.7955 113.534C47.5483 114.04 47.2017 114.433 46.7557 114.714C46.3125 114.996 45.7955 115.136 45.2045 115.136ZM45.2045 114.233C45.6534 114.233 46.0227 114.118 46.3125 113.888C46.6023 113.658 46.8168 113.355 46.956 112.98C47.0952 112.605 47.1648 112.199 47.1648 111.761C47.1648 111.324 47.0952 110.916 46.956 110.538C46.8168 110.161 46.6023 109.855 46.3125 109.622C46.0227 109.389 45.6534 109.273 45.2045 109.273C44.7557 109.273 44.3864 109.389 44.0966 109.622C43.8068 109.855 43.5923 110.161 43.4531 110.538C43.3139 110.916 43.2443 111.324 43.2443 111.761C43.2443 112.199 43.3139 112.605 43.4531 112.98C43.5923 113.355 43.8068 113.658 44.0966 113.888C44.3864 114.118 44.7557 114.233 45.2045 114.233ZM50.7113 111.062V115H49.7056V108.455H50.6772V109.477H50.7624C50.9158 109.145 51.1488 108.878 51.4613 108.676C51.7738 108.472 52.1772 108.369 52.6715 108.369C53.1147 108.369 53.5025 108.46 53.8349 108.642C54.1673 108.821 54.4258 109.094 54.6104 109.46C54.7951 109.824 54.8874 110.284 54.8874 110.841V115H53.8817V110.909C53.8817 110.395 53.7482 109.994 53.4812 109.707C53.2141 109.418 52.8477 109.273 52.3817 109.273C52.0607 109.273 51.7738 109.342 51.521 109.482C51.271 109.621 51.0735 109.824 50.9286 110.091C50.7837 110.358 50.7113 110.682 50.7113 111.062ZM57.6115 106.273V107.04C57.6115 107.273 57.5689 107.521 57.4837 107.786C57.4013 108.047 57.2791 108.301 57.1172 108.548C56.9581 108.793 56.7649 109.006 56.5376 109.188L55.9922 108.744C56.1712 108.489 56.326 108.223 56.4567 107.947C56.5902 107.669 56.657 107.372 56.657 107.057V106.273H57.6115ZM61.9624 108.455V109.307H58.5703V108.455H61.9624ZM59.5589 106.886H60.5646V113.125C60.5646 113.409 60.6058 113.622 60.6882 113.764C60.7734 113.903 60.8814 113.997 61.0121 114.045C61.1456 114.091 61.2862 114.114 61.4339 114.114C61.5447 114.114 61.6357 114.108 61.7067 114.097C61.7777 114.082 61.8345 114.071 61.8771 114.062L62.0817 114.966C62.0135 114.991 61.9183 115.017 61.7962 115.043C61.674 115.071 61.5192 115.085 61.3317 115.085C61.0476 115.085 60.7692 115.024 60.4964 114.902C60.2266 114.78 60.0021 114.594 59.8232 114.344C59.647 114.094 59.5589 113.778 59.5589 113.398V106.886ZM67.3445 115H66.2365L69.4411 106.273H70.532L73.7365 115H72.6286L70.0206 107.653H69.9524L67.3445 115ZM67.7536 111.591H72.2195V112.528H67.7536V111.591ZM75.9652 106.273V115H74.9595V106.273H75.9652ZM78.8129 106.273V115H77.8072V106.273H78.8129ZM83.3139 115.136C82.723 115.136 82.2045 114.996 81.7585 114.714C81.3153 114.433 80.9688 114.04 80.7188 113.534C80.4716 113.028 80.348 112.437 80.348 111.761C80.348 111.08 80.4716 110.484 80.7188 109.976C80.9688 109.467 81.3153 109.072 81.7585 108.791C82.2045 108.51 82.723 108.369 83.3139 108.369C83.9048 108.369 84.4219 108.51 84.8651 108.791C85.3111 109.072 85.6577 109.467 85.9048 109.976C86.1548 110.484 86.2798 111.08 86.2798 111.761C86.2798 112.437 86.1548 113.028 85.9048 113.534C85.6577 114.04 85.3111 114.433 84.8651 114.714C84.4219 114.996 83.9048 115.136 83.3139 115.136ZM83.3139 114.233C83.7628 114.233 84.1321 114.118 84.4219 113.888C84.7116 113.658 84.9261 113.355 85.0653 112.98C85.2045 112.605 85.2741 112.199 85.2741 111.761C85.2741 111.324 85.2045 110.916 85.0653 110.538C84.9261 110.161 84.7116 109.855 84.4219 109.622C84.1321 109.389 83.7628 109.273 83.3139 109.273C82.8651 109.273 82.4957 109.389 82.206 109.622C81.9162 109.855 81.7017 110.161 81.5625 110.538C81.4233 110.916 81.3537 111.324 81.3537 111.761C81.3537 112.199 81.4233 112.605 81.5625 112.98C81.7017 113.355 81.9162 113.658 82.206 113.888C82.4957 114.118 82.8651 114.233 83.3139 114.233ZM89.0753 115L87.081 108.455H88.1378L89.5526 113.466H89.6207L91.0185 108.455H92.0923L93.473 113.449H93.5412L94.956 108.455H96.0128L94.0185 115H93.0298L91.598 109.972H91.4957L90.0639 115H89.0753Z" fill="black"/>
<path d="M130 83H260V128C260 133.523 255.523 138 250 138H130V83Z" fill="black"/>
<path d="M181.415 115H180.307L183.511 106.273H184.602L187.807 115H186.699L184.091 107.653H184.023L181.415 115ZM181.824 111.591H186.29V112.528H181.824V111.591ZM190.036 106.273V115H189.03V106.273H190.036ZM192.883 106.273V115H191.877V106.273H192.883ZM197.384 115.136C196.793 115.136 196.275 114.996 195.829 114.714C195.386 114.433 195.039 114.04 194.789 113.534C194.542 113.028 194.418 112.437 194.418 111.761C194.418 111.08 194.542 110.484 194.789 109.976C195.039 109.467 195.386 109.072 195.829 108.791C196.275 108.51 196.793 108.369 197.384 108.369C197.975 108.369 198.492 108.51 198.935 108.791C199.381 109.072 199.728 109.467 199.975 109.976C200.225 110.484 200.35 111.08 200.35 111.761C200.35 112.437 200.225 113.028 199.975 113.534C199.728 114.04 199.381 114.433 198.935 114.714C198.492 114.996 197.975 115.136 197.384 115.136ZM197.384 114.233C197.833 114.233 198.202 114.118 198.492 113.888C198.782 113.658 198.996 113.355 199.136 112.98C199.275 112.605 199.344 112.199 199.344 111.761C199.344 111.324 199.275 110.916 199.136 110.538C198.996 110.161 198.782 109.855 198.492 109.622C198.202 109.389 197.833 109.273 197.384 109.273C196.935 109.273 196.566 109.389 196.276 109.622C195.987 109.855 195.772 110.161 195.633 110.538C195.494 110.916 195.424 111.324 195.424 111.761C195.424 112.199 195.494 112.605 195.633 112.98C195.772 113.355 195.987 113.658 196.276 113.888C196.566 114.118 196.935 114.233 197.384 114.233ZM203.146 115L201.151 108.455H202.208L203.623 113.466H203.691L205.089 108.455H206.163L207.543 113.449H207.612L209.026 108.455H210.083L208.089 115H207.1L205.668 109.972H205.566L204.134 115H203.146Z" fill="white"/>
<line x1="-4.37114e-08" y1="82.5" x2="128" y2="82.5" stroke="black" stroke-opacity="0.16"/>
</g>
<defs>
<clipPath id="clip0_1_23">
<rect width="260" height="138" rx="10" fill="white"/>
</clipPath>
</defs>
</svg>
