<?xml version="1.0" standalone="no"?>
<!DOCTYPE svg PUBLIC "-//W3C//DTD SVG 20010904//EN"
 "http://www.w3.org/TR/2001/REC-SVG-20010904/DTD/svg10.dtd">
<svg version="1.0" xmlns="http://www.w3.org/2000/svg"
 width="512.000000pt" height="512.000000pt" viewBox="0 0 512.000000 512.000000"
 preserveAspectRatio="xMidYMid meet">

<g transform="translate(0.000000,512.000000) scale(0.100000,-0.100000)"
fill="#000000" stroke="none">
<path d="M3355 3543 c-82 -7 -335 -44 -465 -69 -279 -52 -462 -108 -660 -199
-74 -34 -148 -67 -165 -73 -70 -27 -200 -53 -335 -68 -532 -57 -876 -174
-1069 -364 -86 -85 -125 -160 -156 -298 -45 -206 -123 -358 -228 -444 -80 -66
-83 -135 -8 -185 82 -55 178 -10 296 141 87 112 125 187 185 361 29 83 65 173
81 201 44 78 122 145 229 198 129 63 226 87 383 93 l127 6 0 -45 c0 -83 -38
-199 -119 -363 -86 -176 -135 -240 -230 -304 -82 -56 -137 -117 -176 -195 -29
-56 -35 -80 -35 -130 0 -66 28 -141 77 -204 42 -56 58 -45 148 111 75 129 83
138 124 154 61 23 262 139 352 203 159 114 359 301 435 409 25 36 42 46 133
81 138 54 266 86 394 100 104 11 134 10 372 -21 159 -20 339 -4 492 46 18 6
22 2 28 -27 20 -98 25 -108 66 -128 53 -27 195 -64 354 -91 72 -12 146 -26
167 -31 55 -13 143 -77 238 -172 100 -101 125 -111 245 -102 98 8 122 14 129
33 23 60 -201 285 -451 452 -85 57 -143 110 -143 132 0 5 6 25 14 44 12 27 23
36 55 45 39 10 42 9 74 -22 35 -36 92 -73 197 -131 38 -20 81 -55 104 -82 21
-25 49 -50 62 -55 30 -12 69 2 105 36 15 14 42 33 60 42 24 12 39 31 53 63
l19 47 -26 88 c-15 49 -33 115 -42 146 -11 42 -30 75 -69 120 -44 52 -54 71
-58 112 -7 62 -34 90 -85 89 -30 -1 -55 10 -118 52 -132 88 -354 158 -593 190
-103 14 -447 19 -567 8z m486 -63 c271 -28 538 -111 666 -206 29 -22 31 -27
21 -49 -12 -27 -5 -55 15 -55 8 0 31 14 52 30 21 17 42 30 46 30 5 0 9 -20 9
-45 0 -40 6 -52 64 -121 54 -64 66 -85 77 -138 7 -33 21 -85 31 -115 22 -67
23 -63 -4 -59 -19 2 -28 19 -53 88 -26 74 -34 87 -64 102 -25 12 -39 14 -53 7
-26 -14 -22 -46 8 -61 20 -10 33 -32 55 -92 16 -43 36 -90 45 -104 16 -25 16
-26 -15 -54 -17 -15 -35 -28 -40 -28 -4 0 -27 23 -50 50 -28 33 -65 62 -104
81 -96 49 -192 116 -205 144 -10 22 -18 25 -64 25 -89 0 -152 -47 -164 -122
-13 -79 22 -128 158 -219 127 -86 277 -209 347 -285 34 -37 61 -71 61 -75 0
-5 -35 -9 -79 -9 l-79 0 -87 86 c-124 122 -215 179 -307 194 -238 39 -445 87
-475 112 -18 15 -36 146 -30 229 5 80 32 157 68 195 17 18 19 26 10 43 -16 29
-35 26 -67 -11 -48 -58 -71 -129 -76 -237 -2 -42 -4 -45 -45 -63 -110 -48
-349 -63 -543 -33 -198 31 -393 14 -590 -52 -58 -19 -111 -37 -119 -40 -10 -4
-7 6 8 28 12 19 36 62 54 96 28 57 30 65 16 78 -22 23 -41 11 -69 -43 -76
-144 -231 -345 -355 -461 -162 -150 -312 -256 -510 -357 l-140 -71 -62 -108
c-35 -60 -67 -113 -72 -118 -12 -12 -49 69 -57 126 -6 38 -2 56 20 100 33 68
97 142 156 179 109 69 182 166 281 372 77 162 101 249 97 362 l-3 88 -35 9
c-47 12 -226 2 -325 -18 -99 -21 -210 -63 -294 -112 -131 -77 -208 -183 -272
-374 -76 -228 -121 -310 -233 -427 -73 -78 -114 -99 -154 -80 -45 22 -39 43
31 111 119 115 181 238 227 457 28 131 57 185 143 266 124 118 281 197 506
254 153 38 367 75 523 89 173 16 323 58 501 140 315 144 665 224 1197 274 83
8 306 6 401 -3z"/>
</g>
</svg>
