<?xml version="1.0" standalone="no"?>
<!DOCTYPE svg PUBLIC "-//W3C//DTD SVG 20010904//EN"
 "http://www.w3.org/TR/2001/REC-SVG-20010904/DTD/svg10.dtd">
<svg version="1.0" xmlns="http://www.w3.org/2000/svg"
 width="640.000000pt" height="640.000000pt" viewBox="0 0 640.000000 640.000000"
 preserveAspectRatio="xMidYMid meet">

<g transform="translate(0.000000,640.000000) scale(0.100000,-0.100000)"
fill="#000000" stroke="none">
<path d="M3160 5866 c-71 -39 -150 -281 -150 -457 0 -43 -2 -79 -5 -79 -3 0
-51 47 -107 104 -164 165 -349 299 -431 313 -31 5 -41 1 -67 -25 -28 -29 -30
-35 -30 -107 0 -95 23 -255 55 -393 69 -290 163 -463 370 -682 120 -127 127
-142 137 -315 5 -88 18 -181 34 -249 30 -127 28 -162 -17 -256 -44 -93 -105
-174 -200 -265 -114 -109 -194 -164 -366 -252 -177 -90 -226 -123 -257 -171
-34 -53 -40 -93 -22 -154 16 -57 56 -103 113 -132 67 -34 224 -12 322 45 61
36 44 12 -49 -67 -90 -77 -137 -131 -184 -214 l-24 -43 -79 -2 c-121 -3 -231
-60 -294 -152 -66 -96 -93 -252 -70 -398 12 -73 12 -78 -7 -91 -11 -8 -84
-114 -163 -237 -78 -122 -175 -271 -216 -331 -97 -140 -117 -185 -116 -261 1
-178 178 -290 429 -272 105 7 192 30 268 70 34 18 63 33 66 34 3 2 6 -20 7
-48 4 -100 83 -201 182 -234 64 -21 369 -31 449 -14 157 32 273 144 354 340
l31 77 60 7 c95 10 273 59 381 103 368 152 623 450 733 860 24 86 27 116 27
267 1 186 2 178 -85 485 -38 137 -41 153 -42 289 l-2 144 210 126 c512 307
655 444 658 630 2 124 -65 205 -188 231 -81 17 -148 0 -315 -79 -184 -87 -231
-101 -359 -108 l-103 -6 52 49 c28 27 61 67 72 89 12 22 31 52 43 67 13 15 31
49 41 75 10 26 22 51 27 54 5 4 5 9 -1 13 -6 3 -8 15 -5 25 4 17 9 18 31 10
30 -12 23 -2 -10 15 -29 14 -35 43 -11 49 14 4 14 5 2 6 -10 1 -22 22 -33 56
-23 74 -115 195 -251 330 -154 154 -274 218 -429 232 l-72 6 -1 116 c-1 191
-45 376 -131 546 -106 212 -179 276 -262 231z m127 -128 c134 -203 203 -432
203 -681 0 -97 0 -97 -27 -109 -16 -6 -61 -26 -102 -45 -41 -18 -75 -32 -76
-31 -1 2 -25 47 -53 101 -29 54 -77 135 -107 180 l-55 82 0 120 c0 144 24 270
69 370 52 116 77 118 148 13z m-734 -131 c255 -166 466 -405 617 -698 38 -75
76 -139 84 -142 7 -3 51 14 97 38 147 75 229 90 344 60 134 -35 254 -125 398
-297 106 -127 147 -195 125 -209 -7 -5 -16 -9 -20 -9 -5 0 -8 -5 -8 -10 0 -6
11 -8 25 -4 19 5 25 2 25 -10 0 -9 -7 -16 -15 -16 -8 0 -15 -4 -15 -10 0 -5 7
-10 15 -10 8 0 15 -4 15 -10 0 -5 -9 -10 -20 -10 -11 0 -20 -4 -20 -10 0 -5 9
-10 20 -10 24 0 25 -11 4 -51 -16 -32 -21 -32 -90 -4 -28 12 -32 18 -36 59 -3
38 2 54 24 88 36 53 35 63 -4 79 -62 26 -188 8 -188 -26 0 -15 50 -59 91 -81
26 -13 29 -20 29 -60 0 -40 -5 -51 -36 -79 -19 -18 -54 -41 -77 -51 -56 -25
-73 -49 -43 -60 20 -8 113 40 151 76 l30 29 48 -17 c56 -20 58 -31 17 -95 -56
-88 -162 -137 -330 -152 -77 -7 -120 -25 -120 -50 0 -33 38 -37 304 -32 330 6
362 13 671 151 152 68 258 57 297 -32 39 -88 1 -189 -112 -296 -88 -83 -293
-235 -517 -385 -139 -92 -184 -127 -189 -147 -15 -61 4 -349 37 -539 59 -344
42 -560 -64 -810 -88 -207 -247 -404 -418 -518 -142 -94 -290 -151 -503 -192
-72 -14 -136 -31 -142 -38 -7 -7 -19 -37 -29 -67 -27 -84 -92 -213 -131 -258
-49 -58 -128 -94 -217 -99 l-72 -5 47 44 c106 98 169 230 235 493 35 139 38
161 38 295 0 139 -1 147 -28 203 -34 68 -82 105 -151 115 l-46 7 45 55 c53 64
107 172 125 248 11 46 10 56 -3 69 -30 30 -52 8 -77 -78 -23 -81 -77 -175
-121 -214 -22 -20 -22 -20 -15 0 15 39 19 191 6 246 -31 134 -136 278 -247
341 l-53 30 22 41 c12 23 84 103 159 177 151 150 190 204 303 421 111 215 170
389 210 624 22 125 20 189 -9 301 -17 66 -25 123 -25 183 0 105 -15 202 -40
257 -10 23 -65 91 -123 152 -217 228 -321 438 -376 762 -29 168 -38 300 -22
300 7 0 50 -24 94 -53z m352 -2174 c-26 -89 -95 -247 -157 -361 -59 -109 -63
-114 -132 -157 -218 -136 -373 -151 -429 -42 -43 83 12 153 173 221 172 74
397 224 510 340 24 25 45 46 47 46 1 0 -4 -21 -12 -47z m-547 -1103 c111 -59
189 -173 213 -309 30 -166 -71 -350 -217 -396 -238 -75 -455 146 -431 438 8
96 30 156 79 212 65 74 120 96 224 91 57 -2 82 -9 132 -36z m-445 -622 c45
-71 107 -125 183 -159 l62 -28 -12 -48 c-20 -73 -84 -249 -121 -329 -43 -94
-101 -178 -162 -236 -75 -69 -124 -91 -218 -96 -70 -3 -86 -1 -125 20 -25 14
-60 44 -77 67 -28 36 -33 51 -33 97 0 66 8 83 117 238 47 67 132 198 190 291
101 164 149 235 158 235 3 0 20 -24 38 -52z m879 -68 c78 -61 86 -248 23 -509
-67 -277 -159 -432 -294 -498 -73 -36 -175 -39 -235 -7 -64 33 -99 84 -104
152 -4 57 -2 62 100 267 58 116 136 279 174 364 76 169 109 215 169 236 60 21
137 19 167 -5z m-437 -267 c-187 -405 -227 -465 -360 -528 -38 -18 -86 -36
-105 -40 l-35 -8 53 48 c59 54 113 128 162 224 41 83 112 265 141 362 l22 76
57 6 c31 4 74 12 96 20 21 7 41 12 43 11 1 -2 -32 -78 -74 -171z"/>
<path d="M2626 5324 c-21 -20 -20 -49 3 -160 21 -102 68 -212 131 -304 52 -77
171 -203 234 -248 l45 -33 14 34 c8 18 26 43 41 54 32 26 33 53 6 151 -54 194
-196 379 -371 483 -73 44 -81 46 -103 23z m132 -103 c126 -86 247 -238 301
-380 46 -122 46 -129 2 -178 l-38 -43 -79 83 c-87 91 -159 193 -204 289 -32
69 -70 204 -70 251 0 35 7 33 88 -22z"/>
<path d="M3439 4557 c-50 -33 -50 -65 0 -110 22 -20 59 -41 83 -47 36 -10 49
-9 87 7 25 10 52 30 60 44 13 23 12 28 -9 57 -51 68 -157 92 -221 49z"/>
<path d="M3686 4304 c-38 -7 -71 -16 -75 -20 -3 -4 8 -4 24 0 17 3 76 9 133
12 56 4 102 11 102 16 0 12 -105 8 -184 -8z"/>
<path d="M3775 4246 c-64 -25 -185 -84 -185 -90 0 -2 36 11 80 30 45 18 109
41 143 50 34 8 66 20 72 25 18 17 -49 8 -110 -15z"/>
<path d="M3824 4191 c-33 -22 -72 -54 -89 -72 -26 -27 -21 -25 33 14 34 25 80
54 102 63 22 10 40 21 40 26 0 17 -30 6 -86 -31z"/>
</g>
</svg>
