<?xml version="1.0" standalone="no"?>
<!DOCTYPE svg PUBLIC "-//W3C//DTD SVG 20010904//EN"
 "http://www.w3.org/TR/2001/REC-SVG-20010904/DTD/svg10.dtd">
<svg version="1.0" xmlns="http://www.w3.org/2000/svg"
 width="256.000000pt" height="256.000000pt" viewBox="0 0 256.000000 256.000000"
 preserveAspectRatio="xMidYMid meet">

<g transform="translate(0.000000,256.000000) scale(0.100000,-0.100000)"
fill="#000000" stroke="none">
<path d="M1030 1829 c-25 -3 -62 -14 -84 -23 -21 -9 -53 -16 -70 -16 -41 0
-117 -37 -192 -92 -70 -53 -173 -183 -217 -276 -16 -34 -38 -67 -49 -73 -23
-12 -68 -108 -68 -144 0 -17 -9 -29 -30 -40 -59 -31 -100 -75 -100 -109 0 -74
69 -108 168 -82 31 8 65 18 74 21 17 7 17 5 3 -29 -21 -50 -19 -105 8 -156 35
-69 56 -79 169 -81 110 -3 130 7 147 68 11 40 1 76 -32 111 -30 32 -11 47 34
25 23 -13 59 -18 114 -19 57 0 90 -6 115 -19 49 -26 133 -25 188 2 34 17 55
20 100 16 39 -4 69 0 94 10 l37 15 -1 -46 c-1 -55 19 -99 62 -136 29 -24 39
-26 126 -26 88 0 95 2 123 28 46 42 45 92 -2 147 -33 38 -33 40 -18 69 9 18
15 54 14 87 -1 55 0 56 33 68 18 7 52 28 75 47 22 18 42 34 42 35 1 0 54 4
117 8 137 9 168 23 258 109 84 81 92 106 58 177 -39 79 -106 135 -198 164
l-75 23 -82 -27 c-127 -42 -135 -50 -234 -209 -16 -26 -33 -46 -38 -46 -14 0
-40 32 -94 116 -93 147 -206 239 -321 262 -27 6 -67 17 -89 25 -53 19 -110 25
-165 16z m133 -90 c21 -10 25 -20 32 -82 13 -127 13 -123 -15 -117 -32 6 -148
6 -180 0 -28 -6 -28 -8 -17 125 4 54 10 71 24 76 28 12 130 10 156 -2z m-263
-68 c0 -21 -3 -53 -6 -70 l-6 -31 -57 7 c-31 3 -68 15 -83 26 l-27 20 23 18
c34 27 118 68 139 69 13 0 17 -8 17 -39z m462 0 c25 -16 49 -34 52 -40 12 -18
-30 -48 -77 -54 -51 -7 -51 -8 -63 76 -6 45 -5 47 18 47 13 0 45 -13 70 -29z
m754 -86 c47 -17 78 -35 97 -57 l28 -33 -43 -5 c-55 -7 -68 -16 -68 -46 0 -14
6 -27 13 -29 12 -5 53 -13 71 -14 15 -1 -45 -61 -79 -78 -19 -10 -72 -19 -140
-23 -115 -7 -148 -18 -198 -64 -26 -25 -102 -54 -112 -44 -3 3 2 21 10 41 8
20 15 46 15 58 0 13 17 37 43 59 23 21 56 62 71 91 46 85 104 139 153 139 14
0 59 19 69 29 1 1 32 -10 70 -24z m-1427 -44 l24 -19 -33 -93 c-18 -52 -35
-96 -37 -98 -4 -5 -113 19 -113 25 0 22 114 204 128 204 4 0 18 -9 31 -19z
m854 -69 c27 -40 47 -79 44 -87 -4 -8 -19 -21 -35 -29 l-29 -15 -36 96 c-20
53 -33 101 -31 105 13 21 42 -2 87 -70z m-660 13 c20 -4 40 -11 43 -17 3 -5 0
-49 -7 -98 -14 -102 -6 -97 -120 -79 -44 8 -69 17 -69 25 0 18 51 156 63 172
6 7 20 11 31 8 12 -2 38 -8 59 -11z m523 -75 c18 -47 33 -90 34 -96 0 -10 -62
-29 -136 -40 l-41 -6 -12 98 c-6 53 -8 101 -4 105 10 9 92 28 112 26 8 -1 29
-40 47 -87z m-237 -38 c6 -49 11 -94 11 -101 0 -10 -22 -12 -89 -9 -49 1 -92
6 -96 10 -6 6 10 145 20 176 3 8 27 12 73 12 l69 0 12 -88z m447 -121 c-33
-63 -131 -112 -263 -131 -142 -20 -406 -9 -618 26 -112 18 -267 53 -284 63
-15 10 -4 60 15 68 8 3 49 -4 92 -16 416 -111 831 -105 1022 17 50 32 62 23
36 -27z m-1147 -135 l34 -12 -54 -24 c-30 -13 -76 -25 -104 -27 l-50 -4 60 40
c67 44 66 44 114 27z m1175 -8 c22 -31 20 -87 -4 -123 -26 -39 -25 -70 3 -95
51 -48 57 -54 57 -67 0 -9 -19 -13 -70 -13 -90 0 -115 20 -106 83 16 116 18
145 7 166 -9 16 -9 21 1 22 7 0 29 11 48 24 44 30 45 30 64 3z m-919 -50 c7
-6 -7 -26 -42 -57 -68 -61 -70 -89 -13 -127 23 -15 40 -35 40 -45 0 -17 -8
-19 -76 -19 l-75 0 -15 37 c-19 45 -14 77 26 139 16 26 30 59 30 72 0 24 1 24
58 17 31 -4 62 -11 67 -17z m425 -23 c107 0 218 4 245 8 l50 8 -28 -26 c-36
-33 -70 -40 -123 -28 -38 9 -50 7 -96 -15 -65 -31 -115 -32 -162 -2 -32 19
-45 21 -96 15 -73 -8 -130 7 -130 36 0 18 5 19 73 12 39 -5 160 -8 267 -8z"/>
<path d="M2020 1545 c-15 -19 -4 -52 21 -60 28 -9 57 3 64 26 9 27 -11 49 -45
49 -15 0 -33 -7 -40 -15z"/>
</g>
</svg>
